<mxfile host="app.diagrams.net" agent="Mozilla/5.0 (Windows NT 10.0; Win64; x64) AppleWebKit/537.36 (KHTML, like Gecko) Chrome/127.0.0.0 Safari/537.36 Edg/127.0.0.0" version="26.2.14">
  <diagram name="第 1 页" id="dEZHD5_CiZpKC8oY4pzJ">
    <mxGraphModel dx="1314" dy="797" grid="1" gridSize="10" guides="1" tooltips="1" connect="1" arrows="1" fold="1" page="1" pageScale="1" pageWidth="827" pageHeight="1169" math="0" shadow="0">
      <root>
        <mxCell id="0" />
        <mxCell id="1" parent="0" />
        <mxCell id="18KHv7vYwnJJrIcChJ6o-83" value="" style="rounded=1;whiteSpace=wrap;html=1;fillColor=#B9E0A5;dashed=1;" vertex="1" parent="1">
          <mxGeometry x="690" y="358" width="440" height="360" as="geometry" />
        </mxCell>
        <mxCell id="18KHv7vYwnJJrIcChJ6o-51" value="" style="rounded=1;whiteSpace=wrap;html=1;fillColor=#FFFF99;dashed=1;" vertex="1" parent="1">
          <mxGeometry x="10" y="390" width="520" height="330" as="geometry" />
        </mxCell>
        <mxCell id="18KHv7vYwnJJrIcChJ6o-44" value="" style="rounded=1;whiteSpace=wrap;html=1;fillColor=#99CCFF;dashed=1;" vertex="1" parent="1">
          <mxGeometry x="530" y="280" width="160" height="220" as="geometry" />
        </mxCell>
        <mxCell id="18KHv7vYwnJJrIcChJ6o-4" value="" style="group" vertex="1" connectable="0" parent="1">
          <mxGeometry x="50" y="540" width="60" height="60" as="geometry" />
        </mxCell>
        <mxCell id="18KHv7vYwnJJrIcChJ6o-2" value="" style="rounded=1;whiteSpace=wrap;html=1;" vertex="1" parent="18KHv7vYwnJJrIcChJ6o-4">
          <mxGeometry width="60" height="60" as="geometry" />
        </mxCell>
        <mxCell id="18KHv7vYwnJJrIcChJ6o-3" value="&lt;font style=&quot;font-size: 18px;&quot;&gt;PCAP&lt;/font&gt;" style="text;html=1;align=center;verticalAlign=middle;whiteSpace=wrap;rounded=0;" vertex="1" parent="18KHv7vYwnJJrIcChJ6o-4">
          <mxGeometry y="15" width="60" height="30" as="geometry" />
        </mxCell>
        <mxCell id="18KHv7vYwnJJrIcChJ6o-6" value="" style="endArrow=classic;html=1;rounded=0;entryX=0;entryY=0.5;entryDx=0;entryDy=0;exitX=1;exitY=0.5;exitDx=0;exitDy=0;" edge="1" parent="1" source="18KHv7vYwnJJrIcChJ6o-3" target="18KHv7vYwnJJrIcChJ6o-9">
          <mxGeometry width="50" height="50" relative="1" as="geometry">
            <mxPoint x="120" y="550" as="sourcePoint" />
            <mxPoint x="170" y="500" as="targetPoint" />
          </mxGeometry>
        </mxCell>
        <mxCell id="18KHv7vYwnJJrIcChJ6o-7" value="" style="group" vertex="1" connectable="0" parent="1">
          <mxGeometry x="205" y="430" width="60" height="60" as="geometry" />
        </mxCell>
        <mxCell id="18KHv7vYwnJJrIcChJ6o-8" value="" style="rounded=1;whiteSpace=wrap;html=1;" vertex="1" parent="18KHv7vYwnJJrIcChJ6o-7">
          <mxGeometry width="60" height="60" as="geometry" />
        </mxCell>
        <mxCell id="18KHv7vYwnJJrIcChJ6o-21" style="edgeStyle=orthogonalEdgeStyle;rounded=0;orthogonalLoop=1;jettySize=auto;html=1;exitX=1;exitY=0.5;exitDx=0;exitDy=0;" edge="1" parent="18KHv7vYwnJJrIcChJ6o-7" source="18KHv7vYwnJJrIcChJ6o-9">
          <mxGeometry relative="1" as="geometry">
            <mxPoint x="175" y="30.333333333333258" as="targetPoint" />
          </mxGeometry>
        </mxCell>
        <mxCell id="18KHv7vYwnJJrIcChJ6o-9" value="&lt;font style=&quot;font-size: 16px;&quot;&gt;BURST&lt;/font&gt;" style="text;html=1;align=center;verticalAlign=middle;whiteSpace=wrap;rounded=0;" vertex="1" parent="18KHv7vYwnJJrIcChJ6o-7">
          <mxGeometry width="60" height="60" as="geometry" />
        </mxCell>
        <mxCell id="18KHv7vYwnJJrIcChJ6o-10" value="" style="group" vertex="1" connectable="0" parent="1">
          <mxGeometry x="200" y="540" width="70" height="60" as="geometry" />
        </mxCell>
        <mxCell id="18KHv7vYwnJJrIcChJ6o-11" value="" style="rounded=1;whiteSpace=wrap;html=1;" vertex="1" parent="18KHv7vYwnJJrIcChJ6o-10">
          <mxGeometry width="70" height="60" as="geometry" />
        </mxCell>
        <mxCell id="18KHv7vYwnJJrIcChJ6o-12" value="&lt;font style=&quot;font-size: 16px;&quot;&gt;Temproal&lt;/font&gt;&lt;div&gt;&lt;font size=&quot;3&quot; style=&quot;&quot;&gt;Feature&lt;/font&gt;&lt;/div&gt;" style="text;html=1;align=center;verticalAlign=middle;whiteSpace=wrap;rounded=0;" vertex="1" parent="18KHv7vYwnJJrIcChJ6o-10">
          <mxGeometry width="70" height="60" as="geometry" />
        </mxCell>
        <mxCell id="18KHv7vYwnJJrIcChJ6o-13" value="" style="group" vertex="1" connectable="0" parent="1">
          <mxGeometry x="200" y="650" width="70" height="60" as="geometry" />
        </mxCell>
        <mxCell id="18KHv7vYwnJJrIcChJ6o-14" value="" style="rounded=1;whiteSpace=wrap;html=1;" vertex="1" parent="18KHv7vYwnJJrIcChJ6o-13">
          <mxGeometry width="70" height="60" as="geometry" />
        </mxCell>
        <mxCell id="18KHv7vYwnJJrIcChJ6o-15" value="&lt;span style=&quot;font-size: 16px;&quot;&gt;DNS&lt;/span&gt;&lt;br&gt;&lt;div&gt;&lt;font size=&quot;3&quot; style=&quot;&quot;&gt;Feature&lt;/font&gt;&lt;/div&gt;" style="text;html=1;align=center;verticalAlign=middle;whiteSpace=wrap;rounded=0;" vertex="1" parent="18KHv7vYwnJJrIcChJ6o-13">
          <mxGeometry width="70" height="60" as="geometry" />
        </mxCell>
        <mxCell id="18KHv7vYwnJJrIcChJ6o-16" value="" style="endArrow=classic;html=1;rounded=0;entryX=0.019;entryY=0.583;entryDx=0;entryDy=0;exitX=1;exitY=0.5;exitDx=0;exitDy=0;entryPerimeter=0;" edge="1" parent="1" source="18KHv7vYwnJJrIcChJ6o-3" target="18KHv7vYwnJJrIcChJ6o-12">
          <mxGeometry width="50" height="50" relative="1" as="geometry">
            <mxPoint x="120" y="565" as="sourcePoint" />
            <mxPoint x="215" y="470" as="targetPoint" />
          </mxGeometry>
        </mxCell>
        <mxCell id="18KHv7vYwnJJrIcChJ6o-17" value="" style="endArrow=classic;html=1;rounded=0;entryX=0;entryY=0.5;entryDx=0;entryDy=0;exitX=1;exitY=0.5;exitDx=0;exitDy=0;" edge="1" parent="1" source="18KHv7vYwnJJrIcChJ6o-3" target="18KHv7vYwnJJrIcChJ6o-15">
          <mxGeometry width="50" height="50" relative="1" as="geometry">
            <mxPoint x="120" y="565" as="sourcePoint" />
            <mxPoint x="211" y="585" as="targetPoint" />
          </mxGeometry>
        </mxCell>
        <mxCell id="18KHv7vYwnJJrIcChJ6o-18" value="&lt;font style=&quot;font-size: 14px;&quot;&gt;Packet Spltting &amp;amp; Reassembly&lt;/font&gt;" style="text;html=1;align=center;verticalAlign=middle;whiteSpace=wrap;rounded=0;" vertex="1" parent="1">
          <mxGeometry x="60" y="460" width="110" height="50" as="geometry" />
        </mxCell>
        <mxCell id="18KHv7vYwnJJrIcChJ6o-19" value="&lt;font style=&quot;font-size: 14px;&quot;&gt;Statistics&lt;/font&gt;" style="text;html=1;align=center;verticalAlign=middle;whiteSpace=wrap;rounded=0;" vertex="1" parent="1">
          <mxGeometry x="130" y="540" width="61" height="30" as="geometry" />
        </mxCell>
        <mxCell id="18KHv7vYwnJJrIcChJ6o-20" value="&lt;font style=&quot;font-size: 14px;&quot;&gt;Statistics&lt;/font&gt;" style="text;html=1;align=center;verticalAlign=middle;whiteSpace=wrap;rounded=0;" vertex="1" parent="1">
          <mxGeometry x="84.5" y="620" width="61" height="30" as="geometry" />
        </mxCell>
        <mxCell id="18KHv7vYwnJJrIcChJ6o-23" value="" style="group" vertex="1" connectable="0" parent="1">
          <mxGeometry x="380" y="430" width="60" height="60" as="geometry" />
        </mxCell>
        <mxCell id="18KHv7vYwnJJrIcChJ6o-24" value="" style="rounded=1;whiteSpace=wrap;html=1;" vertex="1" parent="18KHv7vYwnJJrIcChJ6o-23">
          <mxGeometry width="60" height="60" as="geometry" />
        </mxCell>
        <mxCell id="18KHv7vYwnJJrIcChJ6o-26" value="&lt;font style=&quot;font-size: 16px;&quot;&gt;TOKEN&lt;/font&gt;" style="text;html=1;align=center;verticalAlign=middle;whiteSpace=wrap;rounded=0;" vertex="1" parent="18KHv7vYwnJJrIcChJ6o-23">
          <mxGeometry width="60" height="60" as="geometry" />
        </mxCell>
        <mxCell id="18KHv7vYwnJJrIcChJ6o-27" value="&lt;font style=&quot;font-size: 14px;&quot;&gt;Bigram Tokenization&lt;/font&gt;" style="text;html=1;align=center;verticalAlign=middle;whiteSpace=wrap;rounded=0;" vertex="1" parent="1">
          <mxGeometry x="280" y="410" width="80" height="50" as="geometry" />
        </mxCell>
        <mxCell id="18KHv7vYwnJJrIcChJ6o-28" value="" style="group" vertex="1" connectable="0" parent="1">
          <mxGeometry x="349" y="600" width="130" height="60" as="geometry" />
        </mxCell>
        <mxCell id="18KHv7vYwnJJrIcChJ6o-29" value="" style="rounded=1;whiteSpace=wrap;html=1;" vertex="1" parent="18KHv7vYwnJJrIcChJ6o-28">
          <mxGeometry width="130" height="60" as="geometry" />
        </mxCell>
        <mxCell id="18KHv7vYwnJJrIcChJ6o-30" value="&lt;font style=&quot;font-size: 16px;&quot;&gt;Multi-Dimensional Features&lt;/font&gt;" style="text;html=1;align=center;verticalAlign=middle;whiteSpace=wrap;rounded=0;" vertex="1" parent="18KHv7vYwnJJrIcChJ6o-28">
          <mxGeometry width="130" height="60" as="geometry" />
        </mxCell>
        <mxCell id="18KHv7vYwnJJrIcChJ6o-31" style="rounded=0;orthogonalLoop=1;jettySize=auto;html=1;exitX=1;exitY=0.5;exitDx=0;exitDy=0;entryX=0;entryY=0.5;entryDx=0;entryDy=0;" edge="1" parent="1" source="18KHv7vYwnJJrIcChJ6o-12" target="18KHv7vYwnJJrIcChJ6o-30">
          <mxGeometry relative="1" as="geometry">
            <mxPoint x="390" y="470.33333333333326" as="targetPoint" />
            <mxPoint x="275" y="470" as="sourcePoint" />
          </mxGeometry>
        </mxCell>
        <mxCell id="18KHv7vYwnJJrIcChJ6o-32" style="rounded=0;orthogonalLoop=1;jettySize=auto;html=1;exitX=1;exitY=0.5;exitDx=0;exitDy=0;entryX=0;entryY=0.5;entryDx=0;entryDy=0;" edge="1" parent="1" source="18KHv7vYwnJJrIcChJ6o-15" target="18KHv7vYwnJJrIcChJ6o-30">
          <mxGeometry relative="1" as="geometry">
            <mxPoint x="359" y="640" as="targetPoint" />
            <mxPoint x="280" y="580" as="sourcePoint" />
          </mxGeometry>
        </mxCell>
        <mxCell id="18KHv7vYwnJJrIcChJ6o-33" value="&lt;font style=&quot;font-size: 14px;&quot;&gt;Integration&lt;/font&gt;" style="text;html=1;align=center;verticalAlign=middle;whiteSpace=wrap;rounded=0;" vertex="1" parent="1">
          <mxGeometry x="260" y="600" width="80" height="50" as="geometry" />
        </mxCell>
        <mxCell id="18KHv7vYwnJJrIcChJ6o-34" value="" style="group" vertex="1" connectable="0" parent="1">
          <mxGeometry x="380" y="330" width="60" height="60" as="geometry" />
        </mxCell>
        <mxCell id="18KHv7vYwnJJrIcChJ6o-35" value="" style="rounded=1;whiteSpace=wrap;html=1;" vertex="1" parent="18KHv7vYwnJJrIcChJ6o-34">
          <mxGeometry width="60" height="60" as="geometry" />
        </mxCell>
        <mxCell id="18KHv7vYwnJJrIcChJ6o-36" value="&lt;font style=&quot;font-size: 16px;&quot;&gt;CLEAN&lt;/font&gt;&lt;div&gt;&lt;font style=&quot;font-size: 16px;&quot;&gt;DATA&lt;/font&gt;&lt;/div&gt;" style="text;html=1;align=center;verticalAlign=middle;whiteSpace=wrap;rounded=0;" vertex="1" parent="18KHv7vYwnJJrIcChJ6o-34">
          <mxGeometry width="60" height="60" as="geometry" />
        </mxCell>
        <mxCell id="18KHv7vYwnJJrIcChJ6o-37" style="rounded=0;orthogonalLoop=1;jettySize=auto;html=1;exitX=1;exitY=0.5;exitDx=0;exitDy=0;entryX=0;entryY=0.5;entryDx=0;entryDy=0;" edge="1" parent="1" source="18KHv7vYwnJJrIcChJ6o-36" target="18KHv7vYwnJJrIcChJ6o-40">
          <mxGeometry relative="1" as="geometry">
            <mxPoint x="539" y="420" as="targetPoint" />
            <mxPoint x="460" y="360" as="sourcePoint" />
          </mxGeometry>
        </mxCell>
        <mxCell id="18KHv7vYwnJJrIcChJ6o-38" value="" style="group" vertex="1" connectable="0" parent="1">
          <mxGeometry x="564" y="330" width="90" height="60" as="geometry" />
        </mxCell>
        <mxCell id="18KHv7vYwnJJrIcChJ6o-39" value="" style="rounded=1;whiteSpace=wrap;html=1;" vertex="1" parent="18KHv7vYwnJJrIcChJ6o-38">
          <mxGeometry width="90" height="60" as="geometry" />
        </mxCell>
        <mxCell id="18KHv7vYwnJJrIcChJ6o-40" value="&lt;span style=&quot;font-size: 16px;&quot;&gt;Pretrained Model&lt;/span&gt;" style="text;html=1;align=center;verticalAlign=middle;whiteSpace=wrap;rounded=0;" vertex="1" parent="18KHv7vYwnJJrIcChJ6o-38">
          <mxGeometry width="90" height="60" as="geometry" />
        </mxCell>
        <mxCell id="18KHv7vYwnJJrIcChJ6o-41" value="" style="group" vertex="1" connectable="0" parent="1">
          <mxGeometry x="566" y="420" width="90" height="60" as="geometry" />
        </mxCell>
        <mxCell id="18KHv7vYwnJJrIcChJ6o-42" value="" style="rounded=1;whiteSpace=wrap;html=1;" vertex="1" parent="18KHv7vYwnJJrIcChJ6o-41">
          <mxGeometry width="90" height="60" as="geometry" />
        </mxCell>
        <mxCell id="18KHv7vYwnJJrIcChJ6o-43" value="&lt;span style=&quot;font-size: 16px;&quot;&gt;Fine-Tuned&lt;/span&gt;&lt;div&gt;&lt;span style=&quot;font-size: 16px;&quot;&gt;Model&lt;/span&gt;&lt;/div&gt;" style="text;html=1;align=center;verticalAlign=middle;whiteSpace=wrap;rounded=0;" vertex="1" parent="18KHv7vYwnJJrIcChJ6o-41">
          <mxGeometry width="90" height="60" as="geometry" />
        </mxCell>
        <mxCell id="18KHv7vYwnJJrIcChJ6o-45" value="&lt;font style=&quot;font-size: 18px;&quot;&gt;&lt;b&gt;Foundation Model&lt;/b&gt;&lt;/font&gt;" style="text;html=1;align=center;verticalAlign=middle;whiteSpace=wrap;rounded=0;" vertex="1" parent="1">
          <mxGeometry x="545" y="280" width="130" height="50" as="geometry" />
        </mxCell>
        <mxCell id="18KHv7vYwnJJrIcChJ6o-46" value="&lt;font style=&quot;font-size: 14px;&quot;&gt;Input&lt;/font&gt;" style="text;html=1;align=center;verticalAlign=middle;whiteSpace=wrap;rounded=0;" vertex="1" parent="1">
          <mxGeometry x="446" y="330" width="80" height="30" as="geometry" />
        </mxCell>
        <mxCell id="18KHv7vYwnJJrIcChJ6o-47" style="rounded=0;orthogonalLoop=1;jettySize=auto;html=1;exitX=0.5;exitY=1;exitDx=0;exitDy=0;entryX=0.478;entryY=0;entryDx=0;entryDy=0;entryPerimeter=0;" edge="1" parent="1" source="18KHv7vYwnJJrIcChJ6o-40" target="18KHv7vYwnJJrIcChJ6o-43">
          <mxGeometry relative="1" as="geometry">
            <mxPoint x="605" y="420" as="targetPoint" />
            <mxPoint x="460" y="400" as="sourcePoint" />
          </mxGeometry>
        </mxCell>
        <mxCell id="18KHv7vYwnJJrIcChJ6o-48" value="&lt;font style=&quot;font-size: 14px;&quot;&gt;Fine-Tuning&lt;/font&gt;" style="text;html=1;align=center;verticalAlign=middle;whiteSpace=wrap;rounded=0;" vertex="1" parent="1">
          <mxGeometry x="610" y="380" width="80" height="50" as="geometry" />
        </mxCell>
        <mxCell id="18KHv7vYwnJJrIcChJ6o-49" style="rounded=0;orthogonalLoop=1;jettySize=auto;html=1;exitX=1;exitY=0.5;exitDx=0;exitDy=0;entryX=0.022;entryY=0.65;entryDx=0;entryDy=0;entryPerimeter=0;" edge="1" parent="1" source="18KHv7vYwnJJrIcChJ6o-26" target="18KHv7vYwnJJrIcChJ6o-43">
          <mxGeometry relative="1" as="geometry">
            <mxPoint x="560" y="460" as="targetPoint" />
            <mxPoint x="440" y="525" as="sourcePoint" />
          </mxGeometry>
        </mxCell>
        <mxCell id="18KHv7vYwnJJrIcChJ6o-50" value="&lt;font style=&quot;font-size: 14px;&quot;&gt;Embedding&lt;/font&gt;" style="text;html=1;align=center;verticalAlign=middle;whiteSpace=wrap;rounded=0;" vertex="1" parent="1">
          <mxGeometry x="447" y="420" width="80" height="50" as="geometry" />
        </mxCell>
        <mxCell id="18KHv7vYwnJJrIcChJ6o-52" value="&lt;font style=&quot;font-size: 18px;&quot;&gt;&lt;b&gt;Preprocessing&lt;/b&gt;&lt;/font&gt;" style="text;html=1;align=center;verticalAlign=middle;whiteSpace=wrap;rounded=0;" vertex="1" parent="1">
          <mxGeometry x="30" y="390" width="130" height="50" as="geometry" />
        </mxCell>
        <mxCell id="18KHv7vYwnJJrIcChJ6o-60" value="" style="group" vertex="1" connectable="0" parent="1">
          <mxGeometry x="793" y="419.5" width="120" height="65" as="geometry" />
        </mxCell>
        <mxCell id="18KHv7vYwnJJrIcChJ6o-58" value="" style="ellipse;whiteSpace=wrap;html=1;" vertex="1" parent="18KHv7vYwnJJrIcChJ6o-60">
          <mxGeometry width="120" height="65" as="geometry" />
        </mxCell>
        <mxCell id="18KHv7vYwnJJrIcChJ6o-56" value="&lt;span style=&quot;font-size: 16px;&quot;&gt;KL&amp;nbsp;&lt;/span&gt;&lt;span style=&quot;font-size: 16px; background-color: transparent; color: light-dark(rgb(0, 0, 0), rgb(255, 255, 255));&quot;&gt;Divergence&lt;/span&gt;&lt;div&gt;&lt;span style=&quot;font-size: 16px; background-color: transparent; color: light-dark(rgb(0, 0, 0), rgb(255, 255, 255));&quot;&gt;Score&lt;/span&gt;&lt;/div&gt;" style="text;html=1;align=center;verticalAlign=middle;whiteSpace=wrap;rounded=0;" vertex="1" parent="18KHv7vYwnJJrIcChJ6o-60">
          <mxGeometry x="17" y="14" width="90" height="45" as="geometry" />
        </mxCell>
        <mxCell id="18KHv7vYwnJJrIcChJ6o-62" value="" style="group" vertex="1" connectable="0" parent="1">
          <mxGeometry x="793" y="518" width="120" height="70" as="geometry" />
        </mxCell>
        <mxCell id="18KHv7vYwnJJrIcChJ6o-63" value="" style="ellipse;whiteSpace=wrap;html=1;" vertex="1" parent="18KHv7vYwnJJrIcChJ6o-62">
          <mxGeometry width="120" height="65" as="geometry" />
        </mxCell>
        <mxCell id="18KHv7vYwnJJrIcChJ6o-64" value="&lt;span style=&quot;font-size: 16px;&quot;&gt;Entropy&lt;/span&gt;&lt;div&gt;&lt;span style=&quot;font-size: 16px;&quot;&gt;Score&lt;/span&gt;&lt;/div&gt;" style="text;html=1;align=center;verticalAlign=middle;whiteSpace=wrap;rounded=0;" vertex="1" parent="18KHv7vYwnJJrIcChJ6o-62">
          <mxGeometry y="-1" width="120" height="70" as="geometry" />
        </mxCell>
        <mxCell id="18KHv7vYwnJJrIcChJ6o-68" value="" style="group" vertex="1" connectable="0" parent="1">
          <mxGeometry x="793" y="611" width="120" height="70" as="geometry" />
        </mxCell>
        <mxCell id="18KHv7vYwnJJrIcChJ6o-69" value="" style="ellipse;whiteSpace=wrap;html=1;" vertex="1" parent="18KHv7vYwnJJrIcChJ6o-68">
          <mxGeometry width="120" height="65" as="geometry" />
        </mxCell>
        <mxCell id="18KHv7vYwnJJrIcChJ6o-70" value="&lt;span style=&quot;font-size: 16px;&quot;&gt;Multi-Dimensional Score&lt;/span&gt;" style="text;html=1;align=center;verticalAlign=middle;whiteSpace=wrap;rounded=0;" vertex="1" parent="18KHv7vYwnJJrIcChJ6o-68">
          <mxGeometry y="-4" width="120" height="70" as="geometry" />
        </mxCell>
        <mxCell id="18KHv7vYwnJJrIcChJ6o-71" style="rounded=0;orthogonalLoop=1;jettySize=auto;html=1;exitX=1;exitY=0.5;exitDx=0;exitDy=0;entryX=0;entryY=0.5;entryDx=0;entryDy=0;" edge="1" parent="1" source="18KHv7vYwnJJrIcChJ6o-43" target="18KHv7vYwnJJrIcChJ6o-58">
          <mxGeometry relative="1" as="geometry">
            <mxPoint x="643" y="630" as="targetPoint" />
            <mxPoint x="564" y="570" as="sourcePoint" />
          </mxGeometry>
        </mxCell>
        <mxCell id="18KHv7vYwnJJrIcChJ6o-72" style="rounded=0;orthogonalLoop=1;jettySize=auto;html=1;exitX=1;exitY=0.5;exitDx=0;exitDy=0;entryX=0;entryY=0.5;entryDx=0;entryDy=0;" edge="1" parent="1" source="18KHv7vYwnJJrIcChJ6o-43" target="18KHv7vYwnJJrIcChJ6o-64">
          <mxGeometry relative="1" as="geometry">
            <mxPoint x="760" y="473" as="targetPoint" />
            <mxPoint x="666" y="460" as="sourcePoint" />
          </mxGeometry>
        </mxCell>
        <mxCell id="18KHv7vYwnJJrIcChJ6o-73" style="rounded=0;orthogonalLoop=1;jettySize=auto;html=1;exitX=1;exitY=0.5;exitDx=0;exitDy=0;entryX=0;entryY=0.5;entryDx=0;entryDy=0;" edge="1" parent="1" source="18KHv7vYwnJJrIcChJ6o-30" target="18KHv7vYwnJJrIcChJ6o-70">
          <mxGeometry relative="1" as="geometry">
            <mxPoint x="760" y="562" as="targetPoint" />
            <mxPoint x="666" y="460" as="sourcePoint" />
          </mxGeometry>
        </mxCell>
        <mxCell id="18KHv7vYwnJJrIcChJ6o-74" value="&lt;font style=&quot;font-size: 14px;&quot;&gt;Similarity Calculation&lt;/font&gt;" style="text;html=1;align=center;verticalAlign=middle;whiteSpace=wrap;rounded=0;" vertex="1" parent="1">
          <mxGeometry x="554" y="600" width="136" height="50" as="geometry" />
        </mxCell>
        <mxCell id="18KHv7vYwnJJrIcChJ6o-75" value="&lt;font style=&quot;font-size: 14px;&quot;&gt;Probablity&lt;/font&gt;&lt;div&gt;&lt;font style=&quot;font-size: 14px;&quot;&gt;Optimization&lt;/font&gt;&lt;/div&gt;" style="text;html=1;align=center;verticalAlign=middle;whiteSpace=wrap;rounded=0;" vertex="1" parent="1">
          <mxGeometry x="680" y="450" width="136" height="50" as="geometry" />
        </mxCell>
        <mxCell id="18KHv7vYwnJJrIcChJ6o-76" value="" style="group" vertex="1" connectable="0" parent="1">
          <mxGeometry x="1000" y="510" width="170" height="65" as="geometry" />
        </mxCell>
        <mxCell id="18KHv7vYwnJJrIcChJ6o-77" value="" style="ellipse;whiteSpace=wrap;html=1;" vertex="1" parent="18KHv7vYwnJJrIcChJ6o-76">
          <mxGeometry x="-10" width="120" height="65" as="geometry" />
        </mxCell>
        <mxCell id="18KHv7vYwnJJrIcChJ6o-78" value="&lt;span style=&quot;font-size: 16px;&quot;&gt;Multi-&lt;/span&gt;&lt;span style=&quot;background-color: transparent; color: light-dark(rgb(0, 0, 0), rgb(255, 255, 255)); font-size: 16px;&quot;&gt;Domain Funsion&amp;nbsp;&lt;/span&gt;&lt;span style=&quot;background-color: transparent; color: light-dark(rgb(0, 0, 0), rgb(255, 255, 255)); font-size: 16px;&quot;&gt;Score&lt;/span&gt;" style="text;html=1;align=center;verticalAlign=middle;whiteSpace=wrap;rounded=0;" vertex="1" parent="18KHv7vYwnJJrIcChJ6o-76">
          <mxGeometry x="6" y="7" width="93" height="45" as="geometry" />
        </mxCell>
        <mxCell id="18KHv7vYwnJJrIcChJ6o-79" style="rounded=0;orthogonalLoop=1;jettySize=auto;html=1;exitX=1;exitY=0.5;exitDx=0;exitDy=0;entryX=0;entryY=0.5;entryDx=0;entryDy=0;" edge="1" parent="1" source="18KHv7vYwnJJrIcChJ6o-58" target="18KHv7vYwnJJrIcChJ6o-77">
          <mxGeometry relative="1" as="geometry">
            <mxPoint x="803" y="562" as="targetPoint" />
            <mxPoint x="666" y="460" as="sourcePoint" />
          </mxGeometry>
        </mxCell>
        <mxCell id="18KHv7vYwnJJrIcChJ6o-80" style="rounded=0;orthogonalLoop=1;jettySize=auto;html=1;exitX=1;exitY=0.5;exitDx=0;exitDy=0;" edge="1" parent="1" source="18KHv7vYwnJJrIcChJ6o-64">
          <mxGeometry relative="1" as="geometry">
            <mxPoint x="990" y="550" as="targetPoint" />
            <mxPoint x="923" y="462" as="sourcePoint" />
          </mxGeometry>
        </mxCell>
        <mxCell id="18KHv7vYwnJJrIcChJ6o-82" style="rounded=0;orthogonalLoop=1;jettySize=auto;html=1;exitX=1;exitY=0.5;exitDx=0;exitDy=0;entryX=0.022;entryY=0.713;entryDx=0;entryDy=0;entryPerimeter=0;" edge="1" parent="1" source="18KHv7vYwnJJrIcChJ6o-70" target="18KHv7vYwnJJrIcChJ6o-77">
          <mxGeometry relative="1" as="geometry">
            <mxPoint x="1000" y="560" as="targetPoint" />
            <mxPoint x="923" y="562" as="sourcePoint" />
          </mxGeometry>
        </mxCell>
        <mxCell id="18KHv7vYwnJJrIcChJ6o-84" value="&lt;b&gt;&lt;span style=&quot;font-size:14.0pt;&lt;br/&gt;font-family:等线;mso-ascii-theme-font:minor-fareast;mso-fareast-theme-font:minor-fareast;&lt;br/&gt;mso-hansi-theme-font:minor-fareast;mso-bidi-font-family:&amp;quot;Times New Roman&amp;quot;;&lt;br/&gt;mso-bidi-theme-font:minor-bidi;mso-ansi-language:EN-US;mso-fareast-language:&lt;br/&gt;ZH-CN;mso-bidi-language:AR-SA&quot; lang=&quot;EN-US&quot;&gt;Multi-Domain Feature Fusion&amp;nbsp;&lt;/span&gt;&lt;/b&gt;" style="text;html=1;align=center;verticalAlign=middle;whiteSpace=wrap;rounded=0;" vertex="1" parent="1">
          <mxGeometry x="850" y="360" width="267" height="50" as="geometry" />
        </mxCell>
        <mxCell id="18KHv7vYwnJJrIcChJ6o-85" style="rounded=0;orthogonalLoop=1;jettySize=auto;html=1;jumpSize=15;strokeWidth=3;" edge="1" parent="1">
          <mxGeometry relative="1" as="geometry">
            <mxPoint x="1170" y="540" as="targetPoint" />
            <mxPoint x="1110" y="540" as="sourcePoint" />
          </mxGeometry>
        </mxCell>
        <mxCell id="18KHv7vYwnJJrIcChJ6o-86" value="&lt;span lang=&quot;EN-US&quot; style=&quot;&quot;&gt;&lt;font style=&quot;font-size: 18px;&quot;&gt;Application&lt;/font&gt;&lt;/span&gt;&lt;div&gt;&lt;span lang=&quot;EN-US&quot; style=&quot;&quot;&gt;&lt;font style=&quot;font-size: 18px;&quot;&gt;Identification&lt;/font&gt;&lt;/span&gt;&lt;/div&gt;" style="text;whiteSpace=wrap;html=1;align=center;" vertex="1" parent="1">
          <mxGeometry x="1170" y="513" width="110" height="50" as="geometry" />
        </mxCell>
      </root>
    </mxGraphModel>
  </diagram>
</mxfile>
